HIERARCHY
ROOT joint_0
{
	OFFSET 0.000000 0.000000 0.000000
	CHANNELS 6 Xposition Yposition Zposition Zrotation Yrotation Xrotation 
	JOINT joint_1
	{
		OFFSET 6.579712 -2.778931 100.531982
		CHANNELS 3 Zrotation Yrotation Xrotation
		JOINT joint_2
		{
			OFFSET -3.313232 -1.302856 91.974976
			CHANNELS 3 Zrotation Yrotation Xrotation
			JOINT joint_3
			{
				OFFSET -3.421509 -1.641846 91.864014
				CHANNELS 3 Zrotation Yrotation Xrotation
				JOINT joint_4
				{
					OFFSET 7.697388 -4.642578 123.278931
					CHANNELS 3 Zrotation Yrotation Xrotation
					JOINT joint_5
					{
						OFFSET 24.842529 -5.941528 79.695068
						CHANNELS 3 Zrotation Yrotation Xrotation
						End Site
						{
							OFFSET 0.000000 0.000000 0.000000
						}
					}
				}
				JOINT joint_6
				{
					OFFSET -0.159668 -29.112976 68.364014
					CHANNELS 3 Zrotation Yrotation Xrotation
					JOINT joint_7
					{
						OFFSET -18.356079 -115.987061 -20.069092
						CHANNELS 3 Zrotation Yrotation Xrotation
						JOINT joint_8
						{
							OFFSET 31.719482 -11.733276 -267.170898
							CHANNELS 3 Zrotation Yrotation Xrotation
							JOINT joint_9
							{
								OFFSET 29.329956 -5.879517 -234.654053
								CHANNELS 3 Zrotation Yrotation Xrotation
								End Site
								{
									OFFSET 0.000000 0.000000 0.000000
								}
							}
						}
					}
				}
				JOINT joint_10
				{
					OFFSET 8.802979 23.897949 69.798950
					CHANNELS 3 Zrotation Yrotation Xrotation
					JOINT joint_11
					{
						OFFSET 21.159058 115.524292 -19.981934
						CHANNELS 3 Zrotation Yrotation Xrotation
						JOINT joint_12
						{
							OFFSET 18.809204 5.403442 -268.593018
							CHANNELS 3 Zrotation Yrotation Xrotation
							JOINT joint_13
							{
								OFFSET 20.807861 0.421265 -235.639038
								CHANNELS 3 Zrotation Yrotation Xrotation
								End Site
								{
									OFFSET 0.000000 0.000000 0.000000
								}
							}
						}
					}
				}
			}
		}
	}
	JOINT joint_14
	{
		OFFSET -9.713379 -79.513916 -99.348022
		CHANNELS 3 Zrotation Yrotation Xrotation
		JOINT joint_15
		{
			OFFSET -40.607788 -6.518372 -502.938019
			CHANNELS 3 Zrotation Yrotation Xrotation
			JOINT joint_16
			{
				OFFSET -19.807617 -7.437378 -399.590012
				CHANNELS 3 Zrotation Yrotation Xrotation
				JOINT joint_17
				{
					OFFSET 171.701660 -44.751282 -77.782000
					CHANNELS 3 Zrotation Yrotation Xrotation
					End Site
					{
						OFFSET 0.000000 0.000000 0.000000
					}
				}
			}
		}
	}
	JOINT joint_18
	{
		OFFSET 17.854858 79.618652 -98.128052
		CHANNELS 3 Zrotation Yrotation Xrotation
		JOINT joint_19
		{
			OFFSET -24.848877 16.861816 -503.722992
			CHANNELS 3 Zrotation Yrotation Xrotation
			JOINT joint_20
			{
				OFFSET -30.162476 14.470093 -398.750008
				CHANNELS 3 Zrotation Yrotation Xrotation
				JOINT joint_21
				{
					OFFSET 176.096680 -10.987549 -80.021000
					CHANNELS 3 Zrotation Yrotation Xrotation
					End Site
					{
						OFFSET 0.000000 0.000000 0.000000
					}
				}
			}
		}
	}
}
MOTION
Frames: 13
Frame Time: 0.016667
-1023.428772 835.056091 1096.150024 15.065399 -0.472310 -1.099210 0.027710 -3.296129 -1.223029 0.209623 0.473588 0.223266 0.174316 -0.699372 -0.214783 0.141222 2.351388 0.051862 0.000000 0.000000 0.000000 -0.229809 4.183450 -0.012030 0.059998 3.794755 2.215095 0.358154 -2.366931 2.539236 0.000000 0.000000 0.000000 1.200364 1.436939 2.429378 -0.056773 1.919513 -1.451498 0.053175 -0.436307 0.731547 0.000000 0.000000 0.000000 1.712819 1.273968 0.771907 1.745747 0.884618 0.340777 1.837271 -2.786167 0.107802 0.000000 0.000000 0.000000 -1.423818 2.046555 1.301421 -1.383542 0.684571 0.140670 -1.429911 -2.511316 -0.805202 0.000000 0.000000 0.000000 
-1023.584290 835.184814 1096.161987 15.018192 -0.486282 -1.100017 0.028065 -3.256792 -1.227191 0.208385 0.469704 0.228518 0.172968 -0.692230 -0.218142 0.147135 2.320836 0.027133 0.000000 0.000000 0.000000 -0.232359 4.175390 -0.017055 0.060784 3.783505 2.225768 0.357704 -2.397531 2.528057 0.000000 0.000000 0.000000 1.197676 1.435182 2.424264 -0.054953 1.914548 -1.434348 0.057671 -0.396007 0.772154 0.000000 0.000000 0.000000 1.729108 1.269950 0.755800 1.759568 0.899464 0.351032 1.851713 -2.780839 0.115739 0.000000 0.000000 0.000000 -1.412489 2.073333 1.295679 -1.373920 0.650918 0.133378 -1.419060 -2.482681 -0.798520 0.000000 0.000000 0.000000 
-1023.727173 835.316895 1096.178955 14.976560 -0.495765 -1.097883 0.024689 -3.218373 -1.233695 0.203429 0.464555 0.231967 0.168002 -0.685260 -0.220586 0.151832 2.295740 0.007291 0.000000 0.000000 0.000000 -0.236493 4.166901 -0.021686 0.061220 3.772095 2.233740 0.357583 -2.424910 2.521212 0.000000 0.000000 0.000000 1.193779 1.429592 2.421172 -0.053136 1.906392 -1.417496 0.062393 -0.349033 0.813886 0.000000 0.000000 0.000000 1.743889 1.263806 0.737934 1.771985 0.911489 0.358459 1.864495 -2.774961 0.123072 0.000000 0.000000 0.000000 -1.403280 2.094894 1.287419 -1.366398 0.617857 0.125561 -1.410273 -2.453182 -0.792718 0.000000 0.000000 0.000000 
-1023.851074 835.446106 1096.197021 14.946120 -0.500561 -1.091995 0.014601 -3.182951 -1.243400 0.191904 0.460664 0.232033 0.156655 -0.678506 -0.220451 0.154133 2.277509 -0.003520 0.000000 0.000000 0.000000 -0.240530 4.156779 -0.025693 0.061157 3.759971 2.236984 0.357821 -2.445234 2.519940 0.000000 0.000000 0.000000 1.189721 1.419543 2.422288 -0.051440 1.894856 -1.402270 0.067209 -0.291354 0.854145 0.000000 0.000000 0.000000 1.755499 1.257443 0.719814 1.781829 0.918270 0.359268 1.874130 -2.767732 0.129338 0.000000 0.000000 0.000000 -1.397568 2.109798 1.276374 -1.362251 0.587493 0.117053 -1.404877 -2.422921 -0.788406 0.000000 0.000000 0.000000 
-1023.962341 835.578735 1096.220947 14.920844 -0.500865 -1.083263 0.000427 -3.149026 -1.255164 0.176324 0.456429 0.230225 0.141322 -0.672354 -0.219803 0.155263 2.265822 -0.009319 0.000000 0.000000 0.000000 -0.244595 4.145821 -0.028026 0.060618 3.747947 2.236464 0.358430 -2.462067 2.523384 0.000000 0.000000 0.000000 1.185770 1.405873 2.425672 -0.049782 1.880103 -1.387147 0.072216 -0.227317 0.895672 0.000000 0.000000 0.000000 1.765499 1.248856 0.699855 1.790139 0.922357 0.357521 1.881990 -2.759701 0.135014 0.000000 0.000000 0.000000 -1.393749 2.119584 1.262920 -1.359961 0.557706 0.107843 -1.401315 -2.391621 -0.784859 0.000000 0.000000 0.000000 
-1024.067993 835.719666 1096.261963 14.892009 -0.494206 -1.070438 -0.010250 -3.121568 -1.274491 0.164932 0.452737 0.232289 0.129934 -0.666918 -0.221342 0.154442 2.257044 -0.008323 0.000000 0.000000 0.000000 -0.250612 4.137495 -0.026119 0.059926 3.739071 2.235079 0.358825 -2.476123 2.525184 0.000000 0.000000 0.000000 1.179887 1.392240 2.426427 -0.048191 1.864698 -1.369082 0.075957 -0.172365 0.925253 0.000000 0.000000 0.000000 1.777455 1.234630 0.673617 1.799757 0.922500 0.357298 1.891044 -2.749750 0.141732 0.000000 0.000000 0.000000 -1.388614 2.121672 1.245187 -1.356378 0.529006 0.097953 -1.396595 -2.360416 -0.780790 0.000000 0.000000 0.000000 
-1024.172607 835.869446 1096.334961 14.856488 -0.477940 -1.051641 -0.013466 -3.103317 -1.304463 0.161876 0.448373 0.237585 0.126724 -0.660509 -0.224464 0.151059 2.251805 0.001492 0.000000 0.000000 0.000000 -0.265136 4.133567 -0.017112 0.059052 3.734522 2.232436 0.358790 -2.486554 2.523098 0.000000 0.000000 0.000000 1.166148 1.378805 2.420846 -0.046394 1.848222 -1.342762 0.077743 -0.129936 0.935028 0.000000 0.000000 0.000000 1.792311 1.212044 0.637294 1.811082 0.917169 0.361352 1.901795 -2.737313 0.149867 0.000000 0.000000 0.000000 -1.381101 2.112338 1.221069 -1.350446 0.502729 0.087267 -1.389756 -2.329514 -0.775777 0.000000 0.000000 0.000000 
-1024.271362 836.026611 1096.426025 14.817650 -0.454811 -1.028646 -0.012627 -3.091387 -1.342905 0.163628 0.444407 0.247658 0.128046 -0.654705 -0.229904 0.145765 2.249568 0.017958 0.000000 0.000000 0.000000 -0.284441 4.132349 -0.002825 0.057924 3.733053 2.227947 0.358524 -2.494097 2.519202 0.000000 0.000000 0.000000 1.148499 1.365204 2.412167 -0.044571 1.831080 -1.313069 0.078365 -0.096705 0.933410 0.000000 0.000000 0.000000 1.808803 1.183865 0.594548 1.823370 0.908134 0.367220 1.913427 -2.722855 0.158929 0.000000 0.000000 0.000000 -1.372501 2.095303 1.192647 -1.343435 0.477727 0.075797 -1.381968 -2.298329 -0.770312 0.000000 0.000000 0.000000 
-1024.354492 836.196655 1096.500000 14.779581 -0.431178 -1.007724 -0.010696 -3.080900 -1.376519 0.166278 0.440374 0.256173 0.130320 -0.649906 -0.234890 0.140624 2.249904 0.034425 0.000000 0.000000 0.000000 -0.300853 4.132416 0.008060 0.057207 3.732259 2.226715 0.358242 -2.500820 2.515288 0.000000 0.000000 0.000000 1.134415 1.354045 2.406147 -0.043487 1.817925 -1.293303 0.078466 -0.079418 0.929893 0.000000 0.000000 0.000000 1.824897 1.155809 0.554020 1.835485 0.900151 0.372590 1.924943 -2.710088 0.167500 0.000000 0.000000 0.000000 -1.363951 2.080130 1.167034 -1.336319 0.449957 0.062184 -1.374137 -2.267247 -0.764835 0.000000 0.000000 0.000000 
-1024.418213 836.380920 1096.541992 14.744489 -0.407468 -0.990639 -0.008585 -3.073615 -1.403243 0.168947 0.438838 0.262876 0.132614 -0.648656 -0.238977 0.135517 2.253756 0.051476 0.000000 0.000000 0.000000 -0.312339 4.134799 0.012817 0.057105 3.732725 2.230782 0.358064 -2.507138 2.512440 0.000000 0.000000 0.000000 1.127505 1.346653 2.405849 -0.043541 1.811192 -1.290223 0.078056 -0.085636 0.926443 0.000000 0.000000 0.000000 1.839656 1.127855 0.518375 1.846758 0.895206 0.376466 1.935709 -2.699792 0.175090 0.000000 0.000000 0.000000 -1.356401 2.068842 1.147056 -1.329931 0.416199 0.044481 -1.367053 -2.234924 -0.759619 0.000000 0.000000 0.000000 
-1024.467285 836.577820 1096.567993 14.710844 -0.383147 -0.975300 -0.004763 -3.067387 -1.425279 0.173090 0.436994 0.267597 0.136448 -0.648738 -0.242567 0.130109 2.260238 0.070001 0.000000 0.000000 0.000000 -0.324145 4.138520 0.015177 0.057344 3.733669 2.237258 0.357848 -2.512009 2.509497 0.000000 0.000000 0.000000 1.121267 1.341659 2.407672 -0.044245 1.808651 -1.296120 0.077136 -0.107841 0.921054 0.000000 0.000000 0.000000 1.853666 1.099911 0.484603 1.857470 0.891327 0.379890 1.945980 -2.691155 0.182025 0.000000 0.000000 0.000000 -1.349029 2.058941 1.129528 -1.323559 0.380149 0.024547 -1.360051 -2.202321 -0.754423 0.000000 0.000000 0.000000 
-1024.506470 836.788757 1096.588989 14.679837 -0.361658 -0.960348 -0.001654 -3.057988 -1.442094 0.176120 0.435736 0.270625 0.139265 -0.648046 -0.245384 0.125957 2.266995 0.084485 0.000000 0.000000 0.000000 -0.332405 4.139454 0.016714 0.057559 3.732546 2.242167 0.357563 -2.517243 2.505769 0.000000 0.000000 0.000000 1.118126 1.336491 2.407400 -0.045072 1.805307 -1.303630 0.076494 -0.125448 0.917849 0.000000 0.000000 0.000000 1.866748 1.075670 0.451036 1.867335 0.888790 0.382988 1.955512 -2.684699 0.188058 0.000000 0.000000 0.000000 -1.342388 2.050020 1.110217 -1.317983 0.350498 0.007666 -1.353974 -2.174848 -0.749964 0.000000 0.000000 0.000000 
-1024.538208 837.015015 1096.604980 14.651384 -0.344934 -0.945171 0.000518 -3.040810 -1.454932 0.177722 0.433279 0.273319 0.140780 -0.645199 -0.246848 0.122425 2.271217 0.096434 0.000000 0.000000 0.000000 -0.337947 4.135233 0.016736 0.057819 3.726845 2.244675 0.357140 -2.521344 2.500929 0.000000 0.000000 0.000000 1.116571 1.330044 2.404189 -0.046039 1.800275 -1.313357 0.076505 -0.132386 0.919771 0.000000 0.000000 0.000000 1.879025 1.057266 0.417244 1.876531 0.887828 0.384818 1.964474 -2.682028 0.192849 0.000000 0.000000 0.000000 -1.336104 2.042326 1.087233 -1.312923 0.331103 -0.004152 -1.348617 -2.154635 -0.746282 0.000000 0.000000 0.000000 
